<?xml version="1.0" encoding="UTF-8"?>
<svg id="Layer_1" data-name="Layer 1" xmlns="http://www.w3.org/2000/svg" viewBox="0 0 563.72 864">
  <defs>
    <style>
      .cls-1 {
        stroke-width: 3px;
      }

      .cls-1, .cls-2, .cls-3, .cls-4, .cls-5, .cls-6, .cls-7, .cls-8, .cls-9 {
        stroke-miterlimit: 10;
      }

      .cls-1, .cls-3 {
        stroke: #dd871e;
      }

      .cls-1, .cls-3, .cls-7 {
        fill: #dd871e;
      }

      .cls-2, .cls-3, .cls-4, .cls-6, .cls-7, .cls-8, .cls-9 {
        stroke-width: 5px;
      }

      .cls-2, .cls-4, .cls-5 {
        stroke: #231f20;
      }

      .cls-2, .cls-5 {
        fill: none;
      }

      .cls-4, .cls-6 {
        fill: #231f20;
      }

      .cls-5 {
        stroke-width: 4px;
      }

      .cls-6 {
        stroke: #190000;
      }

      .cls-7 {
        stroke: #dc8727;
      }

      .cls-8 {
        fill: #f3bd8b;
        stroke: #f2bd8a;
      }

      .cls-9 {
        fill: #ffe2aa;
        stroke: #ffe2a9;
      }
    </style>
  </defs>
  <path class="cls-3" d="M533.86,513c-23.35-46.13-45.07-85.66-63.62-118.05-29.77-51.98-47.48-78.74-80.74-90-5.76-1.95-53.19-17.23-89.71,9-8.52,6.12-14.29,12.95-17.94,18-3.65-5.05-9.42-11.88-17.94-18-36.52-26.23-83.95-10.95-89.71-9-33.25,11.26-50.96,38.02-80.74,90-18.54,32.39-40.26,71.9-63.61,118.01,12.76-32.77,25.52-65.54,38.27-98.32l45.11-115.86c27.52-9.96,60.24-19.59,97.62-26.47,3.01-.56,6-1.09,8.97-1.59,22.19-3.74,42.97-5.99,62.02-7.23,19.06,1.24,39.85,3.49,62.06,7.24,2.96.5,5.94,1.03,8.93,1.58,37.38,6.88,70.1,16.51,97.62,26.47,14.94,38.39,29.89,76.79,44.84,115.18,12.86,33.02,25.71,66.03,38.55,99.04Z"/>
  <ellipse class="cls-2" cx="209.86" cy="459" rx="27" ry="36"/>
  <ellipse class="cls-2" cx="353.86" cy="459" rx="27" ry="36"/>
  <path class="cls-8" d="M554.8,554.46c-6.8-13.97-13.51-27.43-20.09-40.38,0,0,0-.02-.02-.03-.6-1.18-1.2-2.36-1.8-3.54-22.75-44.61-43.9-82.95-62.03-114.51-.93-1.62-1.86-3.22-2.77-4.8-.66-1.14-1.31-2.27-1.96-3.39-.7-1.19-1.38-2.37-2.06-3.54-25.95-44.34-43.46-67.89-74.21-78.27-5.78-1.95-53.36-17.23-90,9-8.55,6.12-14.34,12.95-18,18-3.66-5.05-9.45-11.88-18-18-36.64-26.23-84.22-10.95-90-9-31.8,10.73-49.43,35.55-76.88,82.86-1.15,1.99-2.32,4.02-3.51,6.09-.21.35-.41.7-.61,1.05-18.14,31.58-39.31,69.94-62.08,114.58-.57,1.14-1.16,2.28-1.74,3.43-.01.01-.01.03-.02.04h0c-6.58,12.96-13.29,26.43-20.1,40.41-2.02,5.12-4.04,10.24-6.06,15.36,21.21,26.45,64.45,73.04,135,105.89,58.45,27.21,111.54,33.77,144,35.29,32.46-1.52,85.55-8.08,144-35.29,70.55-32.85,113.79-79.44,135-105.89-2.02-5.12-4.04-10.24-6.06-15.36ZM371.86,549c-9.08,1.11-18.05.5-18.05.5-2.37-.16-15.59-1.15-30.12-7.03-5.02-1.88-10.59-4.45-16.35-7.98-1.97-1.21-3.82-2.44-5.55-3.68-.01-.01-.02-.02-.03-.02-1.34-.94-2.31-1.66-2.44-1.75,2.45,2.06,4.92,4.11,7.37,6.15,12.72,10.6,25.45,21.21,38.17,31.81.01.1.01.21.02.33.01.04.01.08,0,.12.21,4.97.41,29.49-18.02,44.55-6.33,5.17-12.98,7.7-18,9l-27-18-27,18c-5.02-1.3-11.67-3.83-18-9-18.43-15.06-18.23-39.58-18.02-44.55-.01-.04-.01-.08,0-.12v-.03c.01-.12.01-.2.02-.3,12.72-10.6,25.45-21.21,38.17-31.81,2.48-2.06,4.95-4.13,7.43-6.19-.8.59-1.65,1.2-2.55,1.83h-.01c-.63.44-1.54,1.07-2.64,1.79-3.5,2.28-11.15,6.98-21.75,10.83-10.23,3.71-19.52,5.3-26.72,5.98,0,0-9.4.72-18.93-.43-18.1-2.19-45.09-17-70.71-43.66h-.01c-.42-.25-.65-.4-.67-.43l-.26-.38c-.14-.2-.25-.38-.35-.53l54-126c-1.3-4.1-4.1-14.8,0-27,6.14-18.3,22.87-25.28,27-27,4.87-2.03,23.5-9.8,36,0,4.81,3.77,8.94,10.32,9,18,.06,7.8-5.39,13.82-9,18-.68.79-1.32,1.47-1.91,2.08,24.79,5.25,32.4,13.67,46.91,15.92,20.87,3.24,26.12-10.95,46.36-16.15-.96-.69-10.46-7.75-10.36-19.85,0-.45.34-11.21,8.65-18,12-9.8,29.9-2.03,34.57,0,17.94,7.8,24.82,24.18,25.94,27,4.97,12.55,3.21,23.99,2.84,27l54,126c-26.17,27.42-53.67,42.77-72,45Z"/>
  <path class="cls-9" d="M326.86,612c-6.33,5.17-12.98,7.7-18,9l-27-18-27,18c-5.02-1.3-11.67-3.83-18-9-18.43-15.06-18.23-39.58-18.02-44.55-.01-.04-.01-.08,0-.12v-.03c.01-.12.01-.2.02-.3,12.72-10.6,25.45-21.21,38.17-31.81l24.83,27.03,24.83-27.03c12.72,10.6,25.45,21.21,38.17,31.81.01.1.01.21.02.33.01.04.01.08,0,.12.21,4.97.41,29.49-18.02,44.55Z"/>
  <path class="cls-9" d="M389.86,378c-22.6-15.56-38.17-16.71-48.58-14.32-5.79,1.32-11.74,4.14-17.51,1.11-8.06-4.24-9.87-16.81-9.37-24.43.1-1.57,1.09-14.42,9.3-20.88,14.88-11.7,51.4,3.12,63,28.94,5.27,11.72,4.29,23.15,3.16,29.59Z"/>
  <path class="cls-9" d="M251.92,343.3c.05,7.81-2.78,17.36-8.86,21.61-5.87,4.11-13.24,1.03-18.79-.15-10.92-2.32-27.16-1.36-50.42,13.23-1.21-5.94-3.52-21.53,4.99-36,13.77-23.39,49.36-32.85,64.22-20.31,8.44,7.12,8.85,20.29,8.86,21.61Z"/>
  <ellipse class="cls-4" cx="209.86" cy="459" rx="27" ry="36"/>
  <ellipse class="cls-4" cx="353.86" cy="459" rx="27" ry="36"/>
  <path class="cls-1" d="M221.35,270.72c-3.01.5-6.04,1.03-9.1,1.59-37.9,6.88-71.09,16.51-99,26.47l-45.75,115.86c-3.46-8.53-7.56-19.58-11.49-32.7,0,0-3.2-10.68-5.76-21.56-10.37-44.12-10.99-83.12-9-112.23,4.9-31.87,14.81-74.69,36-121.57C103.22,69.12,135.9,28.23,160.05,2.49c6.4,6.25,15.9,16.43,25.2,30.57,28.96,43.99,32.35,89.47,36,149.63,1.33,21.86,2.17,51.97.1,88.03Z"/>
  <path class="cls-1" d="M512.69,360.38c-3.88,16.77-9.27,33-9.27,33-2.6,7.86-5.16,14.77-7.48,20.58-15.15-38.39-30.32-76.79-45.48-115.18-27.9-9.96-61.1-19.59-99-26.47-3.04-.55-6.06-1.08-9.06-1.58-1.17-36.04.01-66.12,1.5-88.04,6.91-102.53,27.43-137.18,35.53-149.63,9.18-14.14,18.56-24.32,24.88-30.57,23.83,25.74,56.09,66.63,81.74,124.09,20.91,46.88,30.69,89.7,35.52,121.57,1.98,29.11,1.35,68.11-8.88,112.23Z"/>
  <line class="cls-5" x1="497.32" y1="414" x2="497.32" y2="414"/>
  <path class="cls-7" d="M389.86,378c-19.06-13.4-35.95-16.89-45-18-7.13-.87-11.8-1.44-18,0-15,3.49-18.49,13.3-33.18,17.89-9.26,2.89-17.54.9-20.82.11-13.32-3.21-18.32-11.51-37.91-15.92,0,0,0,0,0,0s-8.02-2-16.09-2.08c-5.98-.05-24.48,4.16-45,18l-54,126c.1.15.21.33.35.53l.26.38s.25.18.67.43h.01c25.62,26.66,52.61,41.47,70.71,43.66,9.53,1.15,18.93.43,18.93.43,7.2-.68,16.49-2.27,26.72-5.98,10.6-3.85,18.25-8.55,21.75-10.83,1.1-.72,2.01-1.35,2.64-1.79h.01c6.65-5.95,13.3-11.88,19.95-17.83,6.64,5.93,13.27,11.86,19.9,17.79,0,0,.02.01.03.02,1.73,1.24,3.58,2.47,5.55,3.68,5.76,3.53,11.33,6.1,16.35,7.98,14.53,5.88,27.75,6.87,30.12,7.03,0,0,8.97.61,18.05-.5,18.33-2.23,45.83-17.58,72-45l-54-126ZM209.86,495c-14.91,0-27-16.12-27-36s12.09-36,27-36,27,16.12,27,36-12.09,36-27,36ZM353.86,495c-14.91,0-27-16.12-27-36s12.09-36,27-36,27,16.12,27,36-12.09,36-27,36Z"/>
  <path class="cls-6" d="M306.69,538.95l-24.83,27.03-24.83-27.03c1.62-1.45,3.25-2.9,4.87-4.36h.01c6.65-5.95,13.3-11.88,19.95-17.83,6.64,5.93,13.27,11.86,19.9,17.79,0,0,.02.01.03.02,1.63,1.46,3.27,2.92,4.9,4.38Z"/>
</svg>